<?xml version="1.0" encoding="UTF-8"?>
<svg width="27px" height="27px" viewBox="0 0 27 27" version="1.1" xmlns="http://www.w3.org/2000/svg" xmlns:xlink="http://www.w3.org/1999/xlink">
    <defs></defs>
    <g id="Page-1" stroke="none" stroke-width="0" fill="none" fill-rule="evenodd">
        <g id="Video-Card" transform="translate(-215.000000, -522.000000)" fill-rule="nonzero" fill="#FFFFFF">
            <g id="Card" transform="translate(19.000000, 17.000000)">
                <g id="Footer" transform="translate(0.000000, 483.000000)">
                    <g id="icon-play" transform="translate(196.000000, 22.000000)">
                        <g id="Capa_1">
                            <g id="Group">
                                <path d="M13.5,1.35 C20.1996,1.35 25.65,6.8004 25.65,13.5 C25.65,20.1996 20.1996,25.65 13.5,25.65 C6.8004,25.65 1.35,20.1996 1.35,13.5 C1.35,6.8004 6.8004,1.35 13.5,1.35 L13.5,1.35 Z M13.5,0 C6.04485,0 0,6.0444 0,13.5 C0,20.9556 6.04485,27 13.5,27 C20.95515,27 27,20.9556 27,13.5 C27,6.0444 20.95515,0 13.5,0 L13.5,0 Z" id="Shape"></path>
                                <path d="M18.89415,12.03525 L11.70585,7.3044 C10.4652,6.4881 9.45,7.03575 9.45,8.52075 L9.45,18.477 C9.45,19.962 10.46655,20.51145 11.70945,19.6983 L18.891,14.9985 C20.13345,14.18445 20.1348,12.85155 18.89415,12.03525 Z M17.9361,14.0058 L11.55285,18.18315 C11.13885,18.4545 10.8,18.27135 10.8,17.77635 L10.8,9.22095 C10.8,8.72595 11.1384,8.5437 11.55195,8.81595 L17.93745,13.01805 C18.351,13.28985 18.35055,13.73445 17.9361,14.0058 Z" id="Shape"></path>
                            </g>
                        </g>
                    </g>
                </g>
            </g>
        </g>
    </g>
</svg>