<?xml version="1.0" encoding="UTF-8"?>
<svg width="14px" height="13px" viewBox="0 0 14 13" version="1.1" xmlns="http://www.w3.org/2000/svg" xmlns:xlink="http://www.w3.org/1999/xlink">
    <defs></defs>
    <g id="Page-1" stroke="none" stroke-width="1" fill="none" fill-rule="evenodd">
        <g id="Video-Card" transform="translate(-303.000000, -437.000000)" fill-rule="nonzero" fill="#50E3C2">
            <g id="Card" transform="translate(19.000000, 17.000000)">
                <g id="Content" transform="translate(41.000000, 243.000000)">
                    <g id="Details" transform="translate(1.000000, 133.000000)">
                        <g id="icon-heart" transform="translate(242.000000, 44.000000)">
                            <g id="Capa_1">
                                <g id="Group">
                                    <path d="M13.7986996,3.18327545 C13.326214,1.34109818 11.76,0.0544663636 9.989893,0.0544663636 C8.82564609,0.0544663636 7.77236214,0.610641818 6.97130864,1.63462091 C6.17071605,0.610527273 5.117893,0.0544663636 3.95393416,0.0544663636 C2.18451852,0.0544663636 0.618707819,1.34104091 0.146164609,3.18316091 C-0.106699588,4.16888182 -0.155843621,5.74382455 1.04602469,7.64917364 C2.15634568,9.40939364 4.08027984,11.0398909 6.7641893,12.4953627 C6.82871605,12.5302991 6.89986831,12.5478245 6.9711358,12.5478245 C7.04234568,12.5478245 7.11355556,12.5302991 7.17802469,12.4953627 C9.86274074,11.0398336 11.7871934,9.40933636 12.8979753,7.64917364 C14.1004198,5.74382455 14.0514486,4.16888182 13.7986996,3.18327545 Z M6.97119342,11.6277955 C0.394765432,7.98473455 0.722814815,4.41183273 0.983572016,3.39547091 C1.35846091,1.93415727 2.5799177,0.913557273 3.95399177,0.913557273 C4.99293004,0.913557273 5.93323457,1.51789909 6.60160494,2.61513 C6.67990123,2.74365 6.82001646,2.82217091 6.9711358,2.82217091 L6.97119342,2.82217091 C7.12231276,2.82217091 7.26242798,2.74370727 7.34072428,2.61524455 C8.00967078,1.51789909 8.95055144,0.913557273 9.989893,0.913557273 C11.3646008,0.913557273 12.5864609,1.93415727 12.9612922,3.39547091 C13.2219342,4.41177545 13.5495226,7.98444818 6.97119342,11.6277955 Z" id="Shape"></path>
                                </g>
                            </g>
                        </g>
                    </g>
                </g>
            </g>
        </g>
    </g>
</svg>