<?xml version="1.0" encoding="UTF-8"?>
<svg width="14px" height="18px" viewBox="0 0 14 18" version="1.1" xmlns="http://www.w3.org/2000/svg" xmlns:xlink="http://www.w3.org/1999/xlink">
    <defs></defs>
    <g id="Page-1" stroke="none" stroke-width="1" fill="none" fill-rule="evenodd">
        <g id="Video-Card" transform="translate(-303.000000, -406.000000)" fill-rule="nonzero" fill="#50E3C2">
            <g id="Card" transform="translate(19.000000, 17.000000)">
                <g id="Content" transform="translate(41.000000, 243.000000)">
                    <g id="Details" transform="translate(1.000000, 133.000000)">
                        <g id="icon-time" transform="translate(242.000000, 13.000000)">
                            <g id="Capa_1">
                                <g id="Group">
                                    <path d="M9.69256995,10.1390167 L7.22878756,10.1390167 L7.22878756,7.40711297 C7.22878756,7.10382845 6.98527461,6.85794979 6.68474611,6.85794979 C6.38421762,6.85794979 6.14070466,7.10382845 6.14070466,7.40711297 L6.14070466,10.6881799 C6.14070466,10.9914644 6.38421762,11.2373431 6.68474611,11.2373431 L9.69256995,11.2373431 C9.99309845,11.2373431 10.2366114,10.9914644 10.2366114,10.6881799 C10.2366114,10.3848954 9.99309845,10.1390167 9.69256995,10.1390167 Z" id="Shape"></path>
                                    <path d="M12.2510155,5.89771967 L12.6107358,5.53432008 L12.7833057,5.70858787 C12.8895751,5.81593096 13.0288497,5.86952929 13.1681244,5.86952929 C13.3073264,5.86952929 13.4465285,5.81593096 13.5527254,5.70880753 C13.7652642,5.49441423 13.7654093,5.1466841 13.552943,4.93221757 L13.0073782,4.38122385 C13.0034611,4.37697699 12.9999793,4.37251046 12.9959171,4.36841004 C12.9919275,4.36438285 12.9876477,4.36101464 12.983513,4.35713389 L12.4394715,3.8076046 C12.2269326,3.59299163 11.8825181,3.59299163 11.6701244,3.80738494 C11.4575855,4.02177824 11.4574404,4.36950837 11.6699067,4.5839749 L11.8416062,4.75743724 L11.4784041,5.12435146 C10.7005699,4.45810669 9.77620725,3.96129707 8.76160622,3.69110879 C9.06626943,3.30259414 9.24892228,2.81222803 9.24892228,2.27932008 C9.24884974,1.02246862 8.23613472,0 6.99136788,0 C5.74609326,0 4.73301554,1.02246862 4.73301554,2.27932008 C4.73301554,2.81230126 4.91574093,3.30274059 5.22062176,3.69125523 C2.24565803,4.48351464 0.045626943,7.22259414 0.045626943,10.4707845 C0.045626943,14.3366004 3.16146114,17.4816946 6.99136788,17.4816946 C10.8207668,17.4816946 13.9362383,14.3366004 13.9362383,10.4707845 C13.9362383,8.72495816 13.3006528,7.12623431 12.2510155,5.89771967 Z M5.82109845,2.27932008 C5.82109845,1.62808577 6.34606218,1.09832636 6.99136788,1.09832636 C7.63623834,1.09832636 8.16076684,1.62808577 8.16076684,2.27932008 C8.16076684,2.93033473 7.6361658,3.46002092 6.99136788,3.46002092 C6.34606218,3.46002092 5.82109845,2.93033473 5.82109845,2.27932008 Z M6.99136788,16.3833682 C3.76150259,16.3833682 1.13370984,13.7309833 1.13370984,10.4707845 C1.13370984,7.210659 3.76150259,4.55834728 6.99136788,4.55834728 C10.2208705,4.55834728 12.8481554,7.210659 12.8481554,10.4707845 C12.8481554,13.7309833 10.2207979,16.3833682 6.99136788,16.3833682 Z" id="Shape"></path>
                                    <path d="M6.99136788,5.35866109 C4.28458031,5.35866109 2.08237306,7.58145397 2.08237306,10.3136506 C2.08237306,13.0457008 4.28450777,15.2684205 6.99136788,15.2684205 C9.69772021,15.2684205 11.8994922,13.0457008 11.8994922,10.3136506 C11.8994922,7.58138075 9.69764767,5.35866109 6.99136788,5.35866109 Z M6.99136788,14.1700941 C4.88447668,14.1700941 3.17045596,12.4400837 3.17045596,10.3136506 C3.17045596,8.18707113 4.88447668,6.45698745 6.99136788,6.45698745 C9.0977513,6.45698745 10.8114093,8.18707113 10.8114093,10.3136506 C10.8114093,12.4400105 9.0977513,14.1700941 6.99136788,14.1700941 Z" id="Shape"></path>
                                </g>
                            </g>
                        </g>
                    </g>
                </g>
            </g>
        </g>
    </g>
</svg>